<?xml version="1.0" encoding="UTF-8"?>
<svg width="48px" height="48px" viewBox="0 0 48 48" version="1.1" xmlns="http://www.w3.org/2000/svg" xmlns:xlink="http://www.w3.org/1999/xlink">
    <title>Icon-Resource/Management-Governance/Res_AWS-Organizations_Organizational-Unit_48_Light</title>
    <g id="Icon-Resource/Management-Governance/Res_AWS-Organizations_Organizational-Unit_48" stroke="none" stroke-width="1" fill="none" fill-rule="evenodd">
        <path d="M18.992,25.356 C20.662,25.356 22.299,25.823 23.725,26.707 C26.244,28.268 27.903,31.001 28.208,34 L9.774,34 C10.256,29.15 14.206,25.356 18.992,25.356 L18.992,25.356 Z M14.151,18.372 C14.151,15.703 16.323,13.531 18.992,13.531 C21.661,13.531 23.832,15.703 23.832,18.372 C23.832,21.042 21.661,23.213 18.992,23.213 C16.323,23.213 14.151,21.042 14.151,18.372 L14.151,18.372 Z M8.724,36 L29.259,36 C29.811,36 30.259,35.552 30.259,35 C30.259,30.931 28.159,27.102 24.778,25.007 C24.146,24.615 23.473,24.315 22.784,24.061 C24.62,22.833 25.832,20.742 25.832,18.372 C25.832,14.6 22.763,11.531 18.992,11.531 C15.22,11.531 12.151,14.6 12.151,18.372 C12.151,20.737 13.358,22.825 15.187,24.054 C10.844,25.671 7.724,29.96 7.724,35 C7.724,35.552 8.172,36 8.724,36 L8.724,36 Z M32.058,16 C33.657,16 34.957,17.3 34.957,18.899 C34.957,20.498 33.657,21.798 32.058,21.798 C30.46,21.798 29.159,20.498 29.159,18.899 C29.159,17.3 30.46,16 32.058,16 L32.058,16 Z M28.036,25.563 C29.127,24.487 30.555,23.894 32.058,23.894 C33.111,23.894 34.143,24.189 35.043,24.746 C36.534,25.67 37.55,27.245 37.833,29 L31,29 L31,31 L38.913,31 C39.466,31 39.913,30.552 39.913,30 C39.913,27.169 38.45,24.504 36.096,23.046 C35.82,22.875 35.533,22.728 35.24,22.594 C36.282,21.695 36.957,20.38 36.957,18.899 C36.957,16.197 34.76,14 32.058,14 C29.357,14 27.159,16.197 27.159,18.899 C27.159,20.381 27.835,21.695 28.878,22.594 C28.057,22.969 27.296,23.483 26.632,24.139 L28.036,25.563 Z M4,41 L44,41 L44,7 L4,7 L4,41 Z M45,5 L3,5 C2.447,5 2,5.447 2,6 L2,42 C2,42.552 2.447,43 3,43 L45,43 C45.553,43 46,42.552 46,42 L46,6 C46,5.447 45.553,5 45,5 L45,5 Z" id="Fill-1" fill="#B0084D"></path>
    </g>
</svg>