<?xml version="1.0" encoding="UTF-8"?>
<svg width="48px" height="48px" viewBox="0 0 48 48" version="1.1" xmlns="http://www.w3.org/2000/svg" xmlns:xlink="http://www.w3.org/1999/xlink">
    <title>Icon-Resource/Managment-Governance/Res_AWS-Organizations_Management-Account_48_Light</title>
    <g id="Icon-Resource/Managment-Governance/Res_AWS-Organizations_Management-Account_48" stroke="none" stroke-width="1" fill="none" fill-rule="evenodd">
        <path d="M38.4609,12.7328 C38.2329,12.9708 37.9259,13.1048 37.5969,13.1108 C37.2759,13.0988 36.9539,12.9958 36.7169,12.7668 C36.4789,12.5388 36.3449,12.2308 36.3379,11.9008 C36.3319,11.5718 36.4539,11.2588 36.6829,11.0218 C36.9109,10.7838 37.2189,10.6498 37.5479,10.6428 C37.5569,10.6428 37.5649,10.6428 37.5729,10.6428 C37.8939,10.6428 38.1959,10.7648 38.4279,10.9868 L38.4279,10.9878 C38.6659,11.2158 38.7999,11.5228 38.8069,11.8528 C38.8129,12.1818 38.6899,12.4948 38.4609,12.7328 L38.4609,12.7328 Z M35.2409,9.6348 C34.6429,10.2578 34.3209,11.0768 34.3389,11.9408 C34.3559,12.8038 34.7069,13.6098 35.3299,14.2088 C35.9379,14.7928 36.7309,15.1118 37.5699,15.1118 C37.5929,15.1118 37.6139,15.1108 37.6359,15.1108 C38.4999,15.0938 39.3059,14.7418 39.9029,14.1188 C40.5019,13.4958 40.8229,12.6768 40.8059,11.8138 C40.7889,10.9498 40.4369,10.1438 39.8149,9.5448 C38.5269,8.3098 36.4779,8.3498 35.2409,9.6348 L35.2409,9.6348 Z M42.9649,15.0068 L41.1799,14.6488 C40.9069,14.5918 40.6189,14.6558 40.3929,14.8218 L39.4509,15.5118 C39.2269,15.6758 39.0809,15.9258 39.0489,16.2018 L38.8379,17.9988 L36.2269,17.9968 L36.0189,16.2138 C35.9859,15.9398 35.8429,15.6908 35.6199,15.5258 L34.6679,14.8208 C34.4409,14.6518 34.1539,14.5868 33.8769,14.6438 L32.1069,14.9978 L31.3029,12.5128 L32.9609,11.7518 C33.2149,11.6358 33.4079,11.4188 33.4949,11.1528 L33.8529,10.0568 C33.9389,9.7908 33.9099,9.5008 33.7739,9.2568 L32.8809,7.6688 L34.9959,6.1358 L36.2199,7.4638 C36.4089,7.6708 36.6759,7.7868 36.9549,7.7868 L36.9609,7.7868 L38.1469,7.7798 C38.4239,7.7788 38.6889,7.6618 38.8759,7.4578 L40.0909,6.1398 L42.2029,7.6758 L41.3139,9.2568 C41.1779,9.4988 41.1489,9.7868 41.2319,10.0508 L41.5859,11.1588 C41.6719,11.4268 41.8659,11.6468 42.1219,11.7638 L43.7729,12.5228 L42.9649,15.0068 Z M45.4169,11.0768 L43.3569,10.1308 L43.2709,9.8578 L44.3819,7.8808 C44.6309,7.4398 44.5089,6.8808 44.0989,6.5828 L40.5469,3.9988 C40.1359,3.6998 39.5679,3.7548 39.2239,4.1288 L37.6999,5.7828 L37.3919,5.7848 L35.8639,4.1268 C35.5209,3.7518 34.9509,3.6968 34.5419,3.9938 L30.9859,6.5728 C30.5749,6.8708 30.4529,7.4288 30.7009,7.8718 L31.8149,9.8538 L31.7289,10.1168 L29.6599,11.0658 C29.1989,11.2778 28.9699,11.8008 29.1259,12.2828 L30.4799,16.4618 C30.6359,16.9438 31.1279,17.2308 31.6269,17.1338 L33.8349,16.6918 L34.0819,16.8758 L34.3429,19.1108 C34.4009,19.6148 34.8279,19.9948 35.3349,19.9958 L39.7269,19.9998 L39.7279,19.9998 C40.2339,19.9998 40.6619,19.6198 40.7209,19.1168 L40.9839,16.8678 L41.2189,16.6958 L43.4439,17.1428 C43.9339,17.2398 44.4339,16.9538 44.5919,16.4718 L45.9509,12.2958 C46.1079,11.8128 45.8789,11.2888 45.4169,11.0768 L45.4169,11.0768 Z M10.0959,11.3808 C10.0959,7.3108 13.4069,3.9998 17.4769,3.9998 C21.5459,3.9998 24.8569,7.3108 24.8569,11.3808 C24.8569,15.4508 21.5459,18.7618 17.4769,18.7618 C13.4069,18.7618 10.0959,15.4508 10.0959,11.3808 L10.0959,11.3808 Z M17.4529,20.7618 C19.8769,20.7618 22.2529,21.4518 24.3239,22.7558 C24.8059,23.0608 25.2769,23.4018 25.7249,23.7708 L26.9979,22.2288 C26.4849,21.8058 25.9439,21.4138 25.3909,21.0648 C24.3569,20.4138 23.2549,19.9038 22.1129,19.5248 C24.9419,17.9078 26.8569,14.8658 26.8569,11.3808 C26.8569,6.2078 22.6489,1.9998 17.4769,1.9998 C12.3039,1.9998 8.0959,6.2078 8.0959,11.3808 C8.0959,14.8568 9.9999,17.8898 12.8159,19.5108 C6.5549,21.5858 1.9999,27.7438 1.9999,34.9998 C1.9999,35.5518 2.4469,35.9998 2.9999,35.9998 L20.9199,35.9998 L20.9199,33.9998 L4.0329,33.9998 C4.5189,26.6128 10.3529,20.7618 17.4529,20.7618 L17.4529,20.7618 Z M34.9999,43.1288 L34.9999,34.6648 L41.9999,30.5298 L41.9999,38.9118 L34.9999,43.1288 Z M25.9139,30.3858 L32.9999,34.6088 L32.9999,43.1388 L25.9999,38.8568 L25.9139,30.3858 Z M34.0099,24.4728 L41.1199,28.7048 L34.0019,32.9098 L27.0549,28.7698 L34.0099,24.4728 Z M43.5119,27.8628 L34.4779,22.4848 C34.1569,22.2948 33.7579,22.2978 33.4399,22.4938 L24.4749,28.0318 C24.1769,28.2158 23.9959,28.5428 23.999835,28.8938 L24.1069,39.3788 C24.1099,39.7238 24.2909,40.0428 24.5859,40.2228 L33.5529,45.7088 C33.7129,45.8068 33.8929,45.8548 34.0719,45.8548 C34.2509,45.8548 34.4289,45.8078 34.5859,45.7118 L43.5169,40.3328 C43.8159,40.1518 43.9999,39.8268 43.9999,39.4768 L43.9999,28.7218 C43.9999,28.3688 43.8149,28.0428 43.5119,27.8628 L43.5119,27.8628 Z" id="AWS-Organizations_Management-Account_Resource-Icon_light-bg" fill="#B0084D"></path>
    </g>
</svg>